<svg width="40.000000" height="40.000000" viewBox="0 0 40 40" fill="none"
    xmlns="http://www.w3.org/2000/svg" xmlns:xlink="http://www.w3.org/1999/xlink">
    <desc>
        Created with Pixso.
    </desc>
    <defs />
    <path id="Page background"
        d="M8 0L24 0L36 12L36 36C36 38.2 34.2 40 32 40L8 40C5.79 40 4 38.2 4 36L4 4C4 1.79 5.79 0 8 0Z"
        fill="#D92D20" fill-opacity="1.000000" fill-rule="nonzero" />
    <g opacity="0.300000">
        <path id="Earmark" d="M24 0L36 12L28 12C25.79 12 24 10.2 24 8L24 0Z" fill="#FFFFFF"
            fill-opacity="1.000000" fill-rule="nonzero" />
    </g>
    <path id="File type"
        d="M11.74 25.22L11.74 31.77L13.13 31.77L13.13 29.65L14.29 29.65C14.79 29.65 15.22 29.55 15.58 29.37C15.93 29.18 16.2 28.92 16.39 28.59C16.58 28.26 16.67 27.88 16.67 27.44Q16.67 26.79 16.4 26.3Q16.4 26.29 16.39 26.29C16.21 25.96 15.94 25.69 15.6 25.51C15.25 25.32 14.82 25.22 14.33 25.22L11.74 25.22ZM13.13 28.54L14.07 28.54C14.33 28.54 14.55 28.49 14.73 28.4C14.9 28.31 15.03 28.18 15.12 28.01C15.2 27.85 15.25 27.66 15.25 27.44C15.25 27.22 15.2 27.03 15.12 26.87C15.03 26.71 14.9 26.58 14.73 26.49C14.55 26.4 14.33 26.35 14.06 26.35L13.13 26.35L13.13 28.54ZM17.57 31.77L19.89 31.77Q20.89 31.77 21.6 31.37C22.08 31.11 22.45 30.74 22.71 30.25Q23.09 29.51 23.09 28.49Q23.09 27.47 22.71 26.74Q22.5 26.33 22.19 26.04Q21.93 25.79 21.61 25.62C21.14 25.35 20.57 25.22 19.91 25.22L17.57 25.22L17.57 31.77ZM24.12 25.22L24.12 31.77L25.5 31.77L25.5 29.06L28.17 29.06L28.17 27.92L25.5 27.92L25.5 26.36L28.45 26.36L28.45 25.22L24.12 25.22ZM19.83 30.58L18.96 30.58L18.96 26.41L19.84 26.41Q20.45 26.41 20.87 26.63C21.15 26.77 21.36 27 21.5 27.3C21.64 27.61 21.71 28 21.71 28.49C21.71 28.98 21.64 29.38 21.5 29.68Q21.36 29.98 21.14 30.18Q21.02 30.29 20.87 30.36C20.59 30.51 20.24 30.58 19.83 30.58Z"
        fill="#FFFFFF" fill-opacity="1.000000" fill-rule="evenodd" />
</svg>